<svg xmlns="http://www.w3.org/2000/svg" viewBox="0 0 100 100">
  <circle cx="50" cy="50" r="48" fill="#f2e9df" stroke="#e5d3be" stroke-width="2" />
  <g fill="#d8a45f">
    <path d="M32,25 C28,35 26,45 25,55 C35,45 45,38 55,35 C45,38 35,45 32,25Z" />
    <path d="M68,25 C72,35 74,45 75,55 C65,45 55,38 45,35 C55,38 65,45 68,25Z" />
    <path d="M32,75 C28,65 26,55 25,45 C35,55 45,62 55,65 C45,62 35,55 32,75Z" />
    <path d="M68,75 C72,65 74,55 75,45 C65,55 55,62 45,65 C55,62 65,55 68,75Z" />
  </g>
</svg>